<?xml version="1.0" standalone="no"?>
<!DOCTYPE svg PUBLIC "-//W3C//DTD SVG 20010904//EN"
 "http://www.w3.org/TR/2001/REC-SVG-20010904/DTD/svg10.dtd">
<svg version="1.0" xmlns="http://www.w3.org/2000/svg"
 width="1267.000000pt" height="492.000000pt" viewBox="0 0 1267.000000 492.000000"
 preserveAspectRatio="xMidYMid meet">
<metadata>
Created by potrace 1.16, written by Peter Selinger 2001-2019
</metadata>
<g transform="translate(0.000000,492.000000) scale(0.100000,-0.100000)"
fill="#000000" stroke="none">
<path d="M0 2460 l0 -2460 6335 0 6335 0 0 2460 0 2460 -6335 0 -6335 0 0
-2460z m3239 860 c244 -165 452 -307 462 -316 16 -15 19 -36 21 -182 l3 -165
29 74 c37 96 84 166 153 229 120 110 257 162 423 163 185 0 321 -54 447 -179
57 -57 80 -90 115 -162 43 -90 43 -91 80 -92 42 0 33 -25 83 245 14 77 28 152
31 168 l6 27 221 -2 221 -3 22 -120 c12 -66 29 -164 39 -217 l17 -98 128 0
129 0 10 53 c11 50 71 379 71 385 0 1 100 1 222 0 l221 -3 17 -90 c10 -49 28
-147 40 -217 l23 -128 140 0 139 0 -4 135 c-2 90 -7 138 -15 147 -8 7 -13 40
-13 85 l0 73 150 0 150 0 0 -76 c0 -41 -4 -83 -9 -92 -5 -9 -12 -74 -16 -144
l-7 -128 45 0 45 0 35 73 c89 186 253 307 477 353 155 31 340 0 475 -81 85
-51 109 -77 101 -109 -3 -14 -17 -33 -30 -41 -23 -15 -27 -15 -63 4 -62 31
-156 60 -233 71 -183 26 -389 -64 -482 -209 -15 -25 -28 -49 -28 -53 0 -4 230
-8 511 -8 l511 0 -7 128 c-4 70 -11 135 -16 144 -5 9 -9 51 -9 92 l0 76 150 0
150 0 0 -73 c0 -44 -5 -78 -12 -85 -8 -8 -14 -59 -16 -147 l-4 -135 91 0 91 0
0 220 0 221 123 -3 122 -3 3 -217 2 -218 270 0 270 0 0 220 0 220 390 0 390 0
0 -105 0 -105 -267 -2 -268 -3 -3 -112 -3 -113 236 0 235 0 0 -165 0 -165
-235 0 -235 0 0 -125 0 -125 270 0 270 0 0 -105 0 -105 -390 0 -390 0 0 230 0
230 -270 0 -270 0 0 -125 0 -125 210 0 210 0 0 -105 0 -105 -335 0 -335 0 0
230 0 230 -91 0 -91 0 4 -145 c2 -97 7 -148 16 -157 7 -7 12 -40 12 -85 l0
-73 -151 0 -151 0 5 78 c3 42 11 139 17 214 7 75 10 144 7 153 -6 13 -64 15
-502 15 -567 0 -526 8 -457 -93 95 -140 231 -203 416 -195 97 5 144 17 273 69
31 12 34 11 63 -16 37 -36 38 -49 3 -80 -39 -35 -198 -111 -263 -126 -79 -19
-260 -17 -340 4 -184 48 -340 170 -418 326 -23 46 -42 90 -42 97 0 21 -79 19
-87 -1 -3 -9 0 -78 7 -153 6 -75 14 -172 17 -214 l5 -78 -151 0 -151 0 0 73
c0 45 5 78 13 85 8 9 13 59 15 157 l4 145 -106 0 c-96 0 -106 -2 -106 -18 0
-17 64 -382 74 -424 4 -16 -7 -18 -118 -18 l-122 0 -38 213 c-21 116 -40 220
-43 230 -4 15 -18 17 -122 17 l-118 0 -17 -92 c-9 -51 -28 -155 -42 -230 l-26
-138 -227 0 -227 0 -33 183 c-18 100 -37 203 -43 230 l-10 47 -119 0 c-65 0
-119 -3 -119 -7 0 -5 -18 -107 -40 -227 -22 -121 -40 -221 -40 -223 0 -2 -54
-3 -120 -3 -89 0 -120 3 -120 13 0 6 18 109 40 226 22 118 38 217 36 219 -2 2
-10 -14 -16 -35 -48 -147 -170 -285 -311 -353 -147 -70 -297 -88 -443 -50
-112 29 -190 73 -277 160 -73 72 -108 129 -167 270 -8 19 -11 -15 -11 -141 -1
-116 -5 -170 -13 -181 -7 -9 -217 -154 -467 -322 l-454 -306 -666 0 -665 0
190 128 c104 71 313 212 464 314 l275 186 2 483 2 484 -87 59 c-506 340 -819
550 -826 557 -6 5 285 9 655 9 l664 -1 444 -299z m3151 -1678 l5 -93 103 96
c67 63 110 95 125 95 18 -1 6 -16 -62 -79 l-84 -78 87 -108 c79 -99 92 -127
51 -111 -7 2 -46 48 -86 100 -39 53 -75 96 -78 96 -4 0 -19 -12 -34 -28 -22
-23 -26 -37 -29 -97 -2 -57 -6 -70 -20 -73 -17 -3 -18 11 -18 188 0 177 1 191
18 188 14 -3 18 -18 22 -96z m2248 86 c-3 -7 -18 -15 -34 -18 -25 -4 -29 -10
-32 -43 -3 -34 -1 -37 22 -37 14 0 26 -4 26 -10 0 -5 -11 -10 -25 -10 l-24 0
-3 -122 c-2 -86 -7 -123 -15 -126 -10 -3 -13 26 -13 122 l0 126 -25 0 c-31 0
-33 17 -2 22 18 2 23 10 25 43 4 47 23 65 70 65 22 0 32 -4 30 -12z m582 -2
c0 -9 -12 -16 -32 -18 -30 -3 -33 -6 -36 -40 -3 -36 -2 -38 28 -38 18 0 29 -4
25 -10 -3 -5 -17 -10 -31 -10 l-24 0 0 -125 c0 -104 -2 -125 -15 -125 -13 0
-15 21 -15 125 l0 125 -25 0 c-31 0 -33 17 -2 22 18 2 23 11 28 46 3 24 12 48
20 53 23 15 79 11 79 -5z m-2353 -106 c21 -13 35 -31 42 -57 18 -64 20 -63
-88 -63 -57 0 -103 -4 -106 -10 -4 -6 -1 -26 5 -45 23 -69 114 -84 149 -24 17
30 41 39 41 15 0 -32 -45 -68 -91 -73 -86 -10 -139 42 -139 138 0 112 97 174
187 119z m832 5 c79 -41 80 -213 1 -252 -89 -45 -180 19 -180 127 0 109 90
172 179 125z m425 -6 c27 -21 35 -49 13 -49 -7 0 -18 9 -25 20 -17 28 -97 29
-112 1 -17 -33 -1 -50 73 -73 85 -28 109 -55 88 -105 -15 -37 -47 -53 -105
-53 -48 0 -90 26 -99 60 -7 27 29 28 38 1 12 -40 97 -50 125 -16 7 8 10 24 8
37 -2 18 -15 27 -65 43 -70 23 -103 48 -103 80 0 65 106 100 164 54z m291 -4
c23 -22 25 -32 25 -108 0 -47 3 -99 6 -116 5 -24 3 -31 -9 -31 -8 0 -17 9 -20
20 l-5 21 -34 -21 c-19 -12 -50 -20 -75 -20 -54 0 -83 26 -83 74 0 47 34 71
120 86 62 10 70 14 70 34 0 40 -24 61 -70 61 -33 0 -47 -6 -66 -28 -31 -36
-58 -37 -42 -1 16 35 54 53 111 54 38 0 53 -5 72 -25z m435 -2 c35 -31 55
-112 29 -114 -8 0 -53 0 -101 1 l-88 1 0 -30 c0 -46 39 -85 85 -85 31 0 43 6
65 32 24 29 50 42 50 26 0 -17 -36 -64 -57 -73 -43 -20 -99 -13 -132 15 -55
46 -64 152 -19 210 42 52 120 60 168 17z m1486 -7 c19 -19 34 -43 34 -54 0
-11 3 -27 6 -36 5 -14 -7 -16 -100 -16 -100 0 -106 -1 -106 -20 0 -34 29 -80
56 -90 41 -16 54 -12 91 25 37 37 53 44 53 23 -1 -18 -31 -54 -57 -67 -36 -18
-97 -13 -127 10 -34 27 -48 61 -47 121 0 86 46 137 125 138 30 0 45 -7 72 -34z
m-3303 -89 c22 -60 43 -105 47 -100 4 4 25 52 46 107 33 85 55 119 68 105 2
-2 -26 -80 -63 -173 -69 -174 -96 -215 -134 -200 -27 10 -21 34 9 34 19 0 28
8 40 36 15 35 14 39 -36 164 -27 70 -50 131 -50 135 0 3 7 5 16 3 10 -2 31
-42 57 -111z m2247 11 c0 -116 10 -138 66 -138 62 0 84 47 84 178 0 48 3 62
15 62 13 0 15 -22 15 -135 0 -113 -2 -135 -15 -135 -9 0 -15 9 -15 21 l0 20
-26 -20 c-38 -30 -98 -28 -129 4 -24 23 -25 31 -25 135 0 91 3 110 15 110 12
0 15 -18 15 -102z m435 -3 c1 -118 9 -136 65 -137 25 -1 40 6 57 26 21 24 23
37 23 122 0 77 3 94 15 94 13 0 15 -22 15 -135 0 -91 -4 -135 -11 -135 -6 0
-13 9 -16 20 -5 20 -5 20 -30 0 -30 -23 -89 -26 -116 -6 -26 20 -37 70 -37
168 0 77 2 88 18 88 15 0 17 -12 17 -105z"/>
<path d="M5307 2980 c-3 -8 -15 -69 -27 -135 -11 -66 -23 -128 -26 -137 -5
-16 2 -18 56 -18 59 0 62 1 57 23 -3 12 -15 76 -27 142 -24 139 -26 145 -33
125z"/>
<path d="M6170 2990 c-1 -3 -14 -70 -29 -150 l-27 -145 54 -3 c30 -2 56 -1 58
1 2 1 -8 64 -21 138 -27 146 -32 167 -35 159z"/>
<path d="M4244 2926 c-116 -26 -193 -83 -243 -175 l-32 -61 360 0 c199 0 361
2 361 5 0 20 -55 106 -87 136 -49 46 -77 62 -138 82 -73 24 -151 28 -221 13z"/>
<path d="M2638 2723 c-2 -76 0 -141 3 -146 3 -4 84 -6 180 -5 l174 3 3 143 3
142 -180 0 -180 0 -3 -137z"/>
<path d="M3122 2718 l3 -143 178 -3 177 -2 0 145 0 145 -180 0 -181 0 3 -142z"/>
<path d="M2640 2448 c0 -2 -1 -66 -2 -143 l-2 -140 182 -3 182 -2 0 145 0 145
-180 0 c-99 0 -180 -1 -180 -2z"/>
<path d="M3120 2305 l0 -145 180 0 180 0 0 145 0 145 -180 0 -180 0 0 -145z"/>
<path d="M3981 2333 c73 -192 321 -282 522 -190 88 40 165 121 183 191 l6 26
-361 0 -361 0 11 -27z"/>
<path d="M5680 2341 c0 -20 45 -276 56 -321 5 -17 17 31 40 150 18 96 33 178
33 183 1 4 -28 7 -64 7 -58 0 -65 -2 -65 -19z"/>
<path d="M7582 1587 c-31 -33 -38 -102 -15 -147 57 -110 179 -45 159 83 -4 23
-17 52 -28 64 -29 31 -87 31 -116 0z"/>
</g>
</svg>
