<?xml version="1.0" encoding="utf-8"?>
<!-- Generator: Adobe Illustrator 24.0.1, SVG Export Plug-In . SVG Version: 6.00 Build 0)  -->
<svg version="1.1" id="Layer_1" xmlns="http://www.w3.org/2000/svg" xmlns:xlink="http://www.w3.org/1999/xlink" x="0px" y="0px"
	 viewBox="0 0 595.3 841.9" style="enable-background:new 0 0 595.3 841.9;" xml:space="preserve">
<style type="text/css">
	.st0{fill:#F5F5F1;}
	.st1{fill-rule:evenodd;clip-rule:evenodd;fill:#F5F5F1;}
	.st2{fill:#BA8B52;}
</style>
<rect y="153.14" width="595.3" height="231.5"/>
<g>
	<g>
		<g>
			<path class="st0" d="M311.26,318.92h-2.18l-7.05-9.29l-3.14,2.84v6.45h-1.65v-17.39h1.65v9.09l9.82-9.09h2.23l-7.83,7.11
				L311.26,318.92L311.26,318.92z M323.67,312.8h-9.7c0.03,1.63,0.41,2.91,1.15,3.82c0.75,0.92,1.78,1.37,3.1,1.37
				c1.84,0,3.12-1.02,3.84-3.07l1.45,0.25c-0.49,1.43-1.19,2.46-2.08,3.09c-0.89,0.62-1.99,0.93-3.31,0.93
				c-1.78,0-3.18-0.59-4.18-1.76c-1.01-1.18-1.51-2.78-1.51-4.82c0-2.03,0.51-3.63,1.52-4.82c1.01-1.17,2.41-1.76,4.2-1.76
				C321.8,306.04,323.64,308.29,323.67,312.8L323.67,312.8z M322.06,311.58c-0.23-2.91-1.55-4.37-3.94-4.37
				c-1.09,0-2.01,0.38-2.76,1.14c-0.75,0.75-1.2,1.83-1.35,3.23H322.06L322.06,311.58z M336.78,306.32l-4.98,12.6l-0.98,2.5
				c-0.69,1.75-1.66,2.62-2.92,2.62c-0.31,0-0.78-0.08-1.42-0.23l-0.16-1.49c0.59,0.14,1.03,0.21,1.33,0.21
				c0.47,0,0.82-0.09,1.04-0.28c0.21-0.19,0.43-0.56,0.65-1.11l0.87-2.22l-4.96-12.6h1.61l4.14,10.89l4.3-10.89H336.78
				L336.78,306.32z M350.27,318.92c-0.64,0.13-1.17,0.2-1.56,0.2c-0.58,0-1.07-0.09-1.48-0.28c-0.41-0.18-0.72-0.47-0.92-0.86
				c-0.2-0.39-0.3-1.09-0.3-2.09v-8.44h-1.75v-1.12h1.75v-3.22l1.5-0.95v4.17h2.37v1.12h-2.37v8.26c0,0.58,0.04,1.02,0.11,1.32
				c0.08,0.29,0.22,0.5,0.44,0.65c0.22,0.14,0.51,0.22,0.86,0.22c0.27,0,0.66-0.06,1.17-0.16L350.27,318.92L350.27,318.92z
				 M362.79,312.64c0,2.08-0.49,3.69-1.47,4.83c-0.98,1.15-2.37,1.72-4.16,1.72c-0.86,0-1.64-0.15-2.32-0.45
				c-0.68-0.3-1.27-0.75-1.78-1.35c-0.5-0.6-0.88-1.29-1.14-2.08c-0.25-0.78-0.38-1.66-0.38-2.62c0-1,0.11-1.9,0.33-2.69
				c0.22-0.79,0.56-1.46,1-2.05c0.44-0.57,1.01-1.04,1.68-1.4c0.68-0.36,1.55-0.53,2.62-0.53c1.71,0,3.08,0.56,4.09,1.67
				C362.29,308.82,362.79,310.46,362.79,312.64L362.79,312.64z M361.27,312.64c0-1.13-0.17-2.1-0.5-2.91
				c-0.33-0.81-0.79-1.43-1.38-1.85c-0.59-0.42-1.31-0.63-2.16-0.63c-1.31,0-2.32,0.48-3.04,1.45c-0.71,0.96-1.07,2.25-1.07,3.88
				c0,1.6,0.36,2.91,1.09,3.91c0.73,1.01,1.74,1.51,3.04,1.51c0.6,0,1.14-0.11,1.62-0.33c0.48-0.22,0.9-0.56,1.26-1.02
				c0.37-0.46,0.65-1.03,0.85-1.7C361.17,314.27,361.27,313.5,361.27,312.64L361.27,312.64z M371.66,315.5l1.51-0.25
				c0.22,0.96,0.66,1.66,1.31,2.1c0.64,0.43,1.44,0.65,2.38,0.65c0.66,0,1.24-0.11,1.74-0.33c0.51-0.22,0.9-0.5,1.17-0.85
				c0.26-0.35,0.4-0.77,0.4-1.26c0-0.45-0.15-0.83-0.45-1.15c-0.3-0.32-0.71-0.57-1.21-0.75c-0.5-0.18-1.22-0.37-2.14-0.56
				c-2.87-0.61-4.31-1.78-4.31-3.53c0-1.1,0.43-1.95,1.27-2.58c0.85-0.63,1.92-0.95,3.2-0.95c2.55,0,4.1,1.11,4.67,3.33l-1.45,0.22
				c-0.27-0.89-0.64-1.5-1.1-1.84c-0.46-0.33-1.16-0.5-2.1-0.5c-0.59,0-1.12,0.09-1.6,0.26c-0.47,0.18-0.82,0.41-1.05,0.71
				c-0.23,0.29-0.35,0.65-0.35,1.06c0,0.41,0.11,0.76,0.32,1.05c0.22,0.28,0.62,0.54,1.23,0.77c0.6,0.23,1.38,0.45,2.32,0.67
				c1.79,0.42,2.95,0.91,3.49,1.5c0.54,0.59,0.82,1.28,0.82,2.08c0,0.8-0.2,1.48-0.59,2.05c-0.39,0.56-0.95,1.01-1.7,1.33
				c-0.75,0.32-1.62,0.48-2.63,0.48c-0.65,0-1.24-0.06-1.77-0.19c-0.53-0.12-1.01-0.31-1.45-0.57c-0.44-0.26-0.81-0.61-1.14-1.05
				C372.12,316.96,371.86,316.33,371.66,315.5L371.66,315.5z M395.21,318.92h-1.61c-0.24-0.59-0.39-1.23-0.46-1.92
				c-1.37,1.47-3.08,2.2-5.16,2.2c-0.75,0-1.43-0.13-2.02-0.39c-0.59-0.27-1.07-0.66-1.43-1.18c-0.35-0.53-0.53-1.17-0.53-1.92
				c0-0.53,0.08-1.01,0.25-1.43c0.17-0.42,0.42-0.78,0.75-1.1c0.34-0.32,0.8-0.59,1.37-0.82c0.57-0.23,1.6-0.44,3.09-0.65
				c1.66-0.23,2.84-0.48,3.52-0.74c0-0.72-0.02-1.26-0.05-1.66c-0.04-0.38-0.17-0.75-0.4-1.09c-0.24-0.34-0.59-0.59-1.06-0.77
				c-0.48-0.18-1.06-0.27-1.76-0.27c-2.18,0-3.49,0.93-3.93,2.79l-1.5-0.22c0.46-2.48,2.27-3.72,5.42-3.72
				c0.99,0,1.82,0.11,2.5,0.33c0.67,0.23,1.17,0.55,1.5,0.97c0.33,0.41,0.54,0.92,0.64,1.53c0.1,0.61,0.15,1.45,0.15,2.52
				l-0.04,3.55c-0.01,0.95,0.03,1.68,0.13,2.18C394.68,317.62,394.89,318.22,395.21,318.92L395.21,318.92z M393,312.96v-0.82
				c-0.83,0.32-2.16,0.64-3.98,0.95c-0.96,0.17-1.66,0.35-2.1,0.52c-0.45,0.18-0.78,0.44-1,0.78c-0.23,0.33-0.34,0.73-0.34,1.19
				c0,0.69,0.25,1.24,0.76,1.66c0.51,0.42,1.17,0.63,1.97,0.63c0.47,0,0.93-0.06,1.39-0.19c0.46-0.13,0.91-0.31,1.35-0.56
				c0.44-0.24,0.81-0.54,1.11-0.88c0.29-0.35,0.51-0.8,0.64-1.33C392.93,314.37,393,313.72,393,312.96L393,312.96z M403.74,301.52
				l-0.25,1.19c-0.57-0.08-0.98-0.12-1.23-0.12c-0.43,0-0.77,0.06-1.06,0.19c-0.28,0.12-0.5,0.35-0.66,0.66
				c-0.16,0.31-0.23,0.9-0.23,1.78v1.1h2.63v1.12h-2.63v11.48h-1.48v-11.48h-2.01v-1.12h2.01V305c0-0.88,0.09-1.57,0.27-2.07
				c0.17-0.51,0.51-0.91,0.99-1.23c0.5-0.32,1.1-0.48,1.82-0.48C402.34,301.23,402.95,301.33,403.74,301.52L403.74,301.52z
				 M415.54,312.8h-9.7c0.02,1.63,0.41,2.91,1.15,3.82c0.75,0.92,1.78,1.37,3.1,1.37c1.84,0,3.11-1.02,3.84-3.07l1.45,0.25
				c-0.5,1.43-1.19,2.46-2.08,3.09c-0.89,0.62-1.99,0.93-3.31,0.93c-1.78,0-3.18-0.59-4.18-1.76c-1.01-1.18-1.51-2.78-1.51-4.82
				c0-2.03,0.51-3.63,1.52-4.82c1.01-1.17,2.41-1.76,4.2-1.76C413.66,306.04,415.51,308.29,415.54,312.8L415.54,312.8z
				 M413.93,311.58c-0.23-2.91-1.55-4.37-3.94-4.37c-1.1,0-2.02,0.38-2.76,1.14c-0.75,0.75-1.2,1.83-1.35,3.23H413.93L413.93,311.58
				z M430.76,301.52l-0.25,1.19c-0.57-0.08-0.98-0.12-1.23-0.12c-0.43,0-0.77,0.06-1.06,0.19c-0.28,0.12-0.5,0.35-0.66,0.66
				c-0.15,0.31-0.23,0.9-0.23,1.78v1.1h2.63v1.12h-2.63v11.48h-1.48v-11.48h-2.01v-1.12h2.01V305c0-0.88,0.09-1.57,0.26-2.07
				c0.17-0.51,0.51-0.91,1-1.23c0.5-0.32,1.1-0.48,1.82-0.48C429.37,301.23,429.97,301.33,430.76,301.52L430.76,301.52z
				 M441.75,318.92h-1.5v-1.87c-1.1,1.44-2.45,2.15-4.05,2.15c-2.85,0-4.27-1.55-4.27-4.66v-8.22h1.49v7.82
				c0,1.37,0.27,2.34,0.8,2.92c0.53,0.58,1.24,0.86,2.13,0.86c0.59,0,1.14-0.12,1.65-0.37c0.51-0.25,0.97-0.63,1.36-1.14
				c0.4-0.51,0.64-1.1,0.75-1.78c0.1-0.67,0.15-1.63,0.15-2.85v-5.47h1.5V318.92L441.75,318.92z M450.26,318.92
				c-0.64,0.13-1.17,0.2-1.56,0.2c-0.58,0-1.07-0.09-1.48-0.28c-0.41-0.18-0.72-0.47-0.92-0.86c-0.2-0.39-0.3-1.09-0.3-2.09v-8.44
				h-1.75v-1.12H446v-3.22l1.5-0.95v4.17h2.37v1.12h-2.37v8.26c0,0.58,0.04,1.02,0.11,1.32c0.07,0.29,0.22,0.5,0.44,0.65
				c0.21,0.14,0.51,0.22,0.86,0.22c0.27,0,0.66-0.06,1.17-0.16L450.26,318.92L450.26,318.92z M462.02,318.92h-1.49v-1.87
				c-1.1,1.44-2.45,2.15-4.06,2.15c-2.85,0-4.27-1.55-4.27-4.66v-8.22h1.49v7.82c0,1.37,0.27,2.34,0.8,2.92
				c0.53,0.58,1.24,0.86,2.13,0.86c0.59,0,1.14-0.12,1.65-0.37c0.51-0.25,0.96-0.63,1.36-1.14c0.4-0.51,0.64-1.1,0.75-1.78
				c0.1-0.67,0.15-1.63,0.15-2.85v-5.47h1.49V318.92L462.02,318.92z M472.4,306.8l-0.57,1.27c-0.76-0.32-1.33-0.48-1.69-0.48
				c-0.3,0-0.57,0.05-0.81,0.14c-0.25,0.09-0.48,0.24-0.7,0.45c-0.22,0.2-0.4,0.44-0.56,0.71c-0.16,0.27-0.28,0.57-0.35,0.9
				c-0.08,0.33-0.16,0.82-0.22,1.46c-0.06,0.64-0.1,1.22-0.1,1.74v5.92h-1.48v-12.6h1.3v2.55c0.62-1.89,1.61-2.83,2.94-2.83
				C470.86,306.04,471.6,306.29,472.4,306.8L472.4,306.8z M484.44,312.8h-9.7c0.02,1.63,0.41,2.91,1.15,3.82
				c0.75,0.92,1.78,1.37,3.1,1.37c1.84,0,3.11-1.02,3.84-3.07l1.45,0.25c-0.49,1.43-1.19,2.46-2.08,3.09
				c-0.89,0.62-1.99,0.93-3.31,0.93c-1.78,0-3.17-0.59-4.18-1.76c-1.01-1.18-1.51-2.78-1.51-4.82c0-2.03,0.51-3.63,1.52-4.82
				c1.01-1.17,2.41-1.76,4.2-1.76C482.57,306.04,484.41,308.29,484.44,312.8L484.44,312.8z M482.84,311.58
				c-0.23-2.91-1.54-4.37-3.94-4.37c-1.09,0-2.01,0.38-2.75,1.14c-0.75,0.75-1.2,1.83-1.35,3.23H482.84L482.84,311.58z"/>
			<path class="st1" d="M220.32,258.39c-3.69-16.81-30.21-16.82-33.97,0L220.32,258.39L220.32,258.39z M220.54,271.5
				c-11.4,0-22.8,0-34.19,0C190.2,288.78,216.7,288.77,220.54,271.5L220.54,271.5z M69.47,317.22l61.94,0l40.45-27.25
				c3.19-2.14,3.19-2.14,3.19-5.57l0-12.9c9.04,32.71,51.29,27.23,56.8,0l0.41,0l-4.11,22.55l11.3-0.01l4.11-22.54h10.66l4.11,22.55
				l21.11-0.02l4.11-22.54h10.66l4.11,22.55l11.3,0l-4.11-22.55h10.35c0,10.74-0.07,15.46-1.34,15.47v7.06h13.97v-7.06
				c-1.27,0-1.34-4.82-1.34-15.47h3.45c5.99,23.26,35.35,29.03,51.32,14.55c0.74-0.77-3.04-4.17-3.33-4.02
				c-21.35,11.52-35.41-3.58-35.18-10.53l46.6,0c0,10.75-0.08,15.47-1.34,15.48v7.06h13.97v-7.06c-1.18,0-1.36-4.95-1.36-15.48
				l8.57-0.01l0,22.56l31.23-0.02l0-9.86l-19.93,0l0-12.67h25.3v22.53h36.35v-9.86l-25.05,0l0-12.67h20.59v-13.11h-20.59v-11.63
				l25.05,0v-9.95h-36.35v21.58h-25.29v-21.54l-11.3,0v21.54l-8.55,0.04c0-10.27,0.09-14.55,1.34-14.55v-7.06h-13.97v7.06
				c1.27,0.01,1.34,4.28,1.34,14.51l-47.66,0c0.7-6.19,14.77-21.28,36.1-9.76c1.82,1.11,4.15-3.23,3.32-4.02
				c-17.5-15.13-45.2-7.05-50.91,13.78h-3.71c0-10.27,0.09-14.52,1.34-14.52v-7.06h-13.97v7.06c1.27,0,1.34,4.28,1.34,14.52
				l-12.73,0l-3.94-21.58l-20.6-0.01l-3.94,21.59l-11.52,0l-3.94-21.58l-20.6-0.01l-3.94,21.58l-3.03,0
				c-8.61-29.63-49.6-27.92-56.56,0.89l-0.01-12.7c0-3.43,0-3.43-3.19-5.57l-40.46-27.25l-61.94,0.01l43.63,29.4v44.67L69.47,317.22
				L69.47,317.22z M124.42,268.44h16.84l0,13.38h-16.84L124.42,268.44L124.42,268.44z M147.08,268.44l16.66-0.03l0,13.41h-16.66
				L147.08,268.44L147.08,268.44z M141.26,249.17v13.45h-16.84v-13.45H141.26L141.26,249.17z M147.09,249.17h16.66v13.41
				l-16.66,0.05V249.17L147.09,249.17z M272.25,271.5l-3.37,18.48l-3.37-18.48H272.25L272.25,271.5z M251.82,258.39l-2.94-16.1
				l-2.96,16.1H251.82L251.82,258.39z M291.81,258.39l-2.94-16.1l-2.93,16.1H291.81L291.81,258.39z"/>
			<path class="st1" d="M186.6,272.7l292.85,0.01v-15.48H186.61C185.73,259.87,185.81,270.09,186.6,272.7L186.6,272.7z"/>
		</g>
		<path class="st2" d="M191.8,261.29v7.28h2.73c1.61,0,2.83-0.31,3.67-0.93c0.84-0.62,1.26-1.52,1.26-2.71
			c0-1.19-0.41-2.1-1.25-2.71c-0.83-0.62-2.06-0.92-3.67-0.92H191.8L191.8,261.29z M194.45,258.82c1.52,0,2.66,0.06,3.42,0.19
			c0.76,0.13,1.43,0.33,2.03,0.62c1.04,0.49,1.84,1.2,2.4,2.13c0.56,0.93,0.85,2,0.85,3.22c0,1.14-0.25,2.15-0.74,3.03
			c-0.03,0.06-0.07,0.12-0.1,0.18c-0.57,0.92-1.37,1.64-2.4,2.14c-0.6,0.29-1.27,0.49-2.03,0.62c-0.76,0.12-1.9,0.18-3.42,0.18
			h-6.35v-12.3H194.45L194.45,258.82z M205.53,271.12v-12.3h12.48v2.49h-8.96v2.08h7.98v2.5h-7.98v2.64h8.96v2.59H205.53
			L205.53,271.12z M219.72,266.86h3.6v0.12c0,0.69,0.35,1.22,1.04,1.58c0.7,0.36,1.72,0.55,3.04,0.55c1.03,0,1.82-0.13,2.38-0.4
			c0.56-0.26,0.84-0.63,0.84-1.12c0-0.41-0.18-0.7-0.55-0.89c-0.36-0.19-1.1-0.34-2.21-0.44l-2.5-0.22
			c-1.83-0.17-3.17-0.53-4.03-1.09c-0.86-0.56-1.29-1.35-1.29-2.37c0-1.21,0.62-2.19,1.86-2.95c1.24-0.76,2.88-1.14,4.92-1.14
			c2.19,0,3.91,0.36,5.15,1.08c1.24,0.71,1.86,1.69,1.86,2.93v0.1h-3.5c-0.08-0.62-0.41-1.08-0.98-1.38
			c-0.57-0.3-1.39-0.46-2.47-0.46c-0.99,0-1.76,0.12-2.3,0.37c-0.55,0.25-0.82,0.6-0.82,1.04c0,0.36,0.16,0.62,0.48,0.79
			c0.32,0.17,1.11,0.31,2.36,0.43l2.61,0.24c1.8,0.17,3.12,0.55,3.97,1.14c0.85,0.58,1.27,1.41,1.27,2.47c0,1.37-0.63,2.41-1.9,3.12
			c-1.27,0.71-3.13,1.07-5.58,1.07c-2.33,0-4.13-0.38-5.38-1.12c-1.25-0.75-1.88-1.82-1.88-3.2V266.86L219.72,266.86z
			 M237.07,271.12v-12.3h3.53v12.3H237.07L237.07,271.12z M256.46,269.73c-0.67,0.57-1.44,1-2.29,1.28
			c-0.86,0.28-1.83,0.42-2.9,0.42c-1.08,0-2.11-0.13-3.08-0.4c-0.97-0.26-1.81-0.64-2.53-1.13c-0.88-0.61-1.54-1.32-1.97-2.13
			c-0.43-0.81-0.65-1.75-0.65-2.81c0-1.97,0.76-3.54,2.29-4.71c1.53-1.18,3.58-1.76,6.14-1.76c2.17,0,3.97,0.42,5.42,1.27
			c1.45,0.85,2.27,1.95,2.48,3.31h-3.83c-0.32-0.69-0.82-1.2-1.49-1.54c-0.68-0.34-1.54-0.51-2.58-0.51c-1.4,0-2.52,0.35-3.33,1.06
			c-0.82,0.7-1.22,1.67-1.22,2.89c0,1.22,0.41,2.18,1.22,2.88c0.81,0.7,1.92,1.05,3.33,1.05c0.97,0,1.81-0.18,2.54-0.54
			c0.73-0.36,1.26-0.86,1.59-1.49h-3.19v-2.45h6.93v6.7h-2.66L256.46,269.73L256.46,269.73z M262.4,271.12v-12.3h4.32l7.03,8.67
			v-8.67h3.38v12.3h-4.28l-7.09-8.76v8.76H262.4L262.4,271.12z M293.32,262.75c0.46-0.14,0.8-0.31,1.01-0.49
			c0.21-0.18,0.32-0.39,0.32-0.64c0-0.24-0.09-0.43-0.28-0.56c-0.19-0.14-0.45-0.2-0.77-0.2c-0.34,0-0.62,0.07-0.83,0.21
			c-0.22,0.14-0.32,0.32-0.32,0.52c0,0.17,0.07,0.34,0.22,0.54C292.81,262.32,293.03,262.53,293.32,262.75L293.32,262.75z
			 M295.65,268.46l-3.11-2.79c-0.63,0.24-1.11,0.52-1.46,0.82c-0.34,0.3-0.51,0.61-0.51,0.93c0,0.48,0.24,0.87,0.73,1.18
			c0.49,0.31,1.11,0.47,1.88,0.47c0.44,0,0.87-0.05,1.29-0.15C294.89,268.81,295.28,268.66,295.65,268.46L295.65,268.46z
			 M298.59,271.12l-0.91-0.85c-0.63,0.38-1.36,0.67-2.21,0.88c-0.85,0.2-1.77,0.3-2.77,0.3c-1.67,0-3.05-0.36-4.15-1.07
			c-1.1-0.71-1.65-1.6-1.65-2.66c0-0.79,0.29-1.5,0.9-2.12c0.6-0.63,1.52-1.19,2.78-1.7c-0.46-0.32-0.81-0.68-1.06-1.1
			c-0.25-0.41-0.37-0.85-0.37-1.3c0-0.79,0.39-1.44,1.16-1.93c0.78-0.5,1.79-0.75,3.05-0.75c1.36,0,2.42,0.24,3.18,0.73
			c0.77,0.48,1.15,1.16,1.15,2.02c0,0.62-0.19,1.17-0.57,1.62c-0.38,0.46-0.99,0.89-1.84,1.29l2.49,2.15
			c0.14-0.15,0.25-0.31,0.33-0.47c0.08-0.16,0.13-0.33,0.17-0.51l3.42-0.01c-0.19,0.63-0.43,1.19-0.71,1.67
			c-0.28,0.48-0.61,0.9-0.99,1.26l2.96,2.57H298.59L298.59,271.12z M318.93,261.2h-4.16v2.54h4.16c0.94,0,1.58-0.09,1.93-0.28
			c0.35-0.19,0.52-0.51,0.52-0.97c0-0.45-0.19-0.78-0.57-0.98C320.43,261.3,319.81,261.2,318.93,261.2L318.93,261.2z M314.76,268.66
			h4.69c0.95,0,1.6-0.1,1.94-0.3c0.34-0.2,0.51-0.55,0.51-1.05c0-0.5-0.19-0.86-0.57-1.08c-0.38-0.22-1.01-0.33-1.88-0.33h-4.69
			V268.66L314.76,268.66z M311.23,271.12v-12.3h9.09c1.58,0,2.76,0.26,3.55,0.77c0.79,0.51,1.18,1.28,1.18,2.3
			c0,0.6-0.16,1.13-0.48,1.58c-0.32,0.46-0.8,0.82-1.43,1.11c0.81,0.23,1.43,0.6,1.84,1.11c0.41,0.51,0.62,1.15,0.62,1.92
			c0,1.09-0.41,1.95-1.22,2.57c-0.81,0.62-1.93,0.94-3.36,0.94H311.23L311.23,271.12z M331.41,258.82v6.61
			c0,1.21,0.29,2.09,0.88,2.64c0.58,0.55,1.51,0.83,2.8,0.83c0.68,0,1.28-0.09,1.79-0.26c0.51-0.17,0.91-0.42,1.23-0.75
			c0.25-0.26,0.42-0.56,0.53-0.89c0.1-0.34,0.16-0.86,0.16-1.56v-6.61h3.5v6.93c0,1.86-0.61,3.28-1.83,4.24
			c-1.22,0.97-3.01,1.45-5.37,1.45c-2.36,0-4.14-0.48-5.36-1.45c-1.22-0.96-1.83-2.38-1.83-4.24v-6.93H331.41L331.41,258.82z
			 M345.5,271.12v-12.3h3.53v12.3H345.5L345.5,271.12z M352.22,271.12v-12.3h3.53v9.71h7.23v2.59H352.22L352.22,271.12z
			 M368.83,261.29v7.28h2.73c1.61,0,2.83-0.31,3.67-0.93c0.84-0.62,1.25-1.52,1.25-2.71c0-1.19-0.41-2.1-1.25-2.71
			c-0.83-0.62-2.06-0.92-3.67-0.92H368.83L368.83,261.29z M371.48,258.82c1.52,0,2.66,0.06,3.42,0.19c0.75,0.13,1.43,0.33,2.03,0.62
			c1.04,0.49,1.84,1.2,2.4,2.13c0.56,0.93,0.85,2,0.85,3.22c0,1.22-0.28,2.28-0.85,3.21c-0.57,0.92-1.37,1.64-2.4,2.14
			c-0.6,0.29-1.27,0.49-2.03,0.62c-0.76,0.12-1.9,0.18-3.42,0.18h-6.35v-12.3H371.48L371.48,258.82z M382.56,271.12v-12.3h12.48
			v2.49h-8.96v2.08h7.98v2.5h-7.98v2.64h8.96v2.59H382.56L382.56,271.12z M400.86,264.06h3.98c1.05,0,1.79-0.11,2.22-0.34
			c0.43-0.23,0.64-0.59,0.64-1.11c0-0.5-0.2-0.85-0.6-1.05c-0.4-0.2-1.2-0.3-2.41-0.3h-3.83V264.06L400.86,264.06z M397.33,271.12
			v-12.3h8.64c1.88,0,3.26,0.27,4.15,0.81c0.89,0.54,1.33,1.37,1.33,2.5c0,0.72-0.21,1.36-0.62,1.91c-0.42,0.56-0.99,0.95-1.72,1.2
			c0.62,0.23,1.06,0.51,1.31,0.85c0.25,0.33,0.39,0.92,0.44,1.77c0.01,0.09,0.01,0.2,0.02,0.34c0.07,1.53,0.32,2.5,0.74,2.92h-3.96
			c-0.09-0.13-0.17-0.28-0.21-0.44c-0.05-0.16-0.07-0.34-0.07-0.52v-0.83c0-1.13-0.17-1.87-0.5-2.22c-0.33-0.35-0.98-0.52-1.95-0.52
			h-0.08h-3.98v4.53H397.33L397.33,271.12z M413.41,266.86h3.6v0.12c0,0.69,0.35,1.22,1.04,1.58c0.7,0.36,1.71,0.55,3.04,0.55
			c1.03,0,1.82-0.13,2.38-0.4c0.56-0.26,0.84-0.63,0.84-1.12c0-0.41-0.18-0.7-0.55-0.89c-0.36-0.19-1.1-0.34-2.21-0.44l-2.5-0.22
			c-1.83-0.17-3.17-0.53-4.03-1.09c-0.86-0.56-1.29-1.35-1.29-2.37c0-1.21,0.62-2.19,1.86-2.95c1.24-0.76,2.88-1.14,4.92-1.14
			c2.19,0,3.91,0.36,5.15,1.08c1.24,0.71,1.86,1.69,1.86,2.93v0.1h-3.5c-0.08-0.62-0.41-1.08-0.99-1.38
			c-0.57-0.3-1.39-0.46-2.46-0.46c-0.99,0-1.76,0.12-2.3,0.37c-0.55,0.25-0.82,0.6-0.82,1.04c0,0.36,0.16,0.62,0.48,0.79
			c0.32,0.17,1.11,0.31,2.36,0.43l2.61,0.24c1.8,0.17,3.12,0.55,3.97,1.14c0.85,0.58,1.27,1.41,1.27,2.47c0,1.37-0.64,2.41-1.9,3.12
			c-1.27,0.71-3.13,1.07-5.58,1.07c-2.33,0-4.12-0.38-5.38-1.12c-1.26-0.75-1.88-1.82-1.88-3.2V266.86L413.41,266.86z
			 M437.83,271.12v-12.3h3.53v9.71h7.23v2.59H437.83L437.83,271.12z M455.59,261.3v9.81h-3.5v-9.81h-4.81v-2.49h13.11v2.49H455.59
			L455.59,261.3z M465.58,261.29v7.28h2.73c1.61,0,2.83-0.31,3.67-0.93c0.84-0.62,1.26-1.52,1.26-2.71c0-1.19-0.42-2.1-1.25-2.71
			c-0.84-0.62-2.06-0.92-3.67-0.92H465.58L465.58,261.29z M468.23,258.82c1.52,0,2.66,0.06,3.42,0.19c0.76,0.13,1.43,0.33,2.03,0.62
			c1.04,0.49,1.84,1.2,2.4,2.13c0.57,0.93,0.85,2,0.85,3.22c0,1.22-0.28,2.28-0.85,3.21c-0.57,0.92-1.37,1.64-2.4,2.14
			c-0.6,0.29-1.27,0.49-2.03,0.62c-0.76,0.12-1.9,0.18-3.42,0.18h-6.35v-12.3H468.23L468.23,258.82z"/>
	</g>
</g>
</svg>
